Patient4_TMGait_0pt3_01_left_27_GRF.mot
version=1
nRows=32
nColumns=19
inDegrees=no
endheader
time	F1x	F1y	F1z	M1x	M1y	M1z	F2x	F2y	F2z	M2x	M2y	M2z	EC1x	EC1y	EC1z	EC2x	EC2y	EC2z
50.81	2.6091	-5.3319	4.092	0.54934	-2.7718	-4.8877	-25.1882	775.7362	-52.726	286.7707	63.8252	747.0547	-0.0592	0.0182	-0.0073	-0.0462	0.0165	0.9585
50.8297	1.8237	-3.3818	2.7568	0.2787	-1.8398	-3.0735	-25.0847	787.264	-52.1226	291.9652	63.4451	753.5358	-0.0592	0.0182	-0.0073	-0.0462	0.0165	0.9585
50.8494	1.1362	-1.7035	1.6314	0.041352	-1.0676	-1.5042	-24.4901	803.3001	-51.3801	298.9059	62.5199	763.2468	-0.0592	0.0182	-0.0073	-0.0462	0.0165	0.9585
50.8691	0.60189	-0.39334	0.78082	-0.1504	-0.49749	-0.27437	-23.3339	822.9874	-50.603	307.1792	61.0708	775.6025	-0.0592	0.0182	-0.0073	-0.0462	0.0165	0.9585
50.8889	0.22552	0.54922	0.19908	-0.29471	-0.12221	0.61786	-21.6396	844.1009	-49.9348	315.8533	59.2322	788.8437	-0.0592	0.0182	-0.0073	-0.0462	0.0165	0.9585
50.9086	-0.01783	1.1618	-0.15513	-0.39295	0.090116	1.2135	-19.5354	863.3204	-49.4824	323.5995	57.1765	800.2575	-0.0592	0.0182	-0.0073	-0.0462	0.0165	0.9585
50.9283	-0.16432	1.4975	-0.33366	-0.449	0.17849	1.5612	-17.1935	877.1158	-49.2592	329.0418	55.0345	806.9259	-0.0592	0.0182	-0.0073	-0.0462	0.0165	0.9585
50.948	-0.24811	1.6114	-0.38798	-0.46542	0.18113	1.7062	-14.7245	882.7522	-49.176	331.1452	52.8361	806.5766	-0.0592	0.0182	-0.0073	-0.0462	0.0165	0.9585
50.9677	-0.2985	1.5397	-0.36409	-0.43891	0.13185	1.6752	-12.1448	878.9315	-49.0768	329.4578	50.5225	798.1337	-0.0592	0.0182	-0.0073	-0.0462	0.0165	0.9585
50.9874	-0.33985	1.2904	-0.30022	-0.35918	0.057909	1.4665	-9.3928	866.034	-48.7985	324.1901	47.9971	781.9387	-0.0592	0.0182	-0.0073	-0.0462	0.0165	0.9585
51.0071	-0.38883	0.8461	-0.22449	-0.21171	-0.020898	1.0558	-6.3844	845.9245	-48.2198	316.1195	45.1817	759.6059	-0.0592	0.0182	-0.0073	-0.0462	0.0165	0.9585
51.0269	-0.45282	0.16954	-0.159	0.022415	-0.089598	0.40053	-3.0638	821.4267	-47.2997	306.373	42.0631	733.5799	-0.0592	0.0182	-0.0073	-0.0462	0.0165	0.9585
51.0466	-0.52421	-0.77878	-0.11944	0.36071	-0.13494	-0.54218	0.57161	795.7049	-46.0931	296.1835	38.7141	706.604	-0.0592	0.0182	-0.0073	-0.0462	0.0165	0.9585
51.0663	-0.57957	-2.0131	-0.11097	0.80801	-0.14635	-1.7883	4.4557	771.6684	-44.728	286.665	35.2802	681.2024	-0.0592	0.0182	-0.0073	-0.0462	0.0165	0.9585
51.086	-0.5812	-3.4817	-0.13596	1.3446	-0.11031	-3.2888	8.4812	751.5312	-43.3602	278.6543	31.9334	659.2947	-0.0592	0.0182	-0.0073	-0.0462	0.0165	0.9585
51.1057	-0.47609	-5.0255	-0.20072	1.9114	-0.0023557	-4.8842	12.5381	736.5679	-42.122	272.6308	28.8171	641.9811	-0.0592	0.0182	-0.0073	-0.0462	0.0165	0.9585
51.1254	-0.19329	-6.3309	-0.31573	2.3912	0.21368	-6.253	16.5242	727.0553	-41.1031	268.7	26.0315	629.4902	-0.0592	0.0182	-0.0073	-0.0462	0.0165	0.9585
51.1451	0.35191	-6.868	-0.4888	2.5854	0.57777	-6.8628	20.3517	722.3775	-40.3573	266.6337	23.6415	621.274	-0.0592	0.0182	-0.0073	-0.0462	0.0165	0.9585
51.1649	1.2425	-5.8402	-0.71808	2.1961	1.1227	-5.9097	23.9562	721.2599	-39.8998	265.9561	21.6698	616.2204	-0.0592	0.0182	-0.0073	-0.0462	0.0165	0.9585
51.1846	2.541	-2.1671	-0.98983	0.82259	1.8619	-2.29	27.2908	722.0539	-39.7115	266.0465	20.1018	612.9076	-0.0592	0.0182	-0.0073	-0.0462	0.0165	0.9585
51.2043	4.2609	5.465	-1.274	-2.0178	2.7733	5.3487	30.3183	722.9609	-39.7616	266.2211	18.9075	609.8127	-0.0592	0.0182	-0.0073	-0.0462	0.0165	0.9585
51.224	6.3204	18.4586	-1.5122	-6.8376	3.7691	18.464	32.9727	722.1875	-40.0054	265.7902	18.0548	605.4659	-0.0592	0.0182	-0.0073	-0.0462	0.0165	0.9585
51.2437	8.4663	38.0305	-1.6023	-14.0788	4.6507	38.3381	35.1285	718.0612	-40.3658	264.104	17.5066	598.558	-0.0592	0.0182	-0.0073	-0.0462	0.0165	0.9585
51.2634	10.1182	64.8199	-1.378	-23.9669	5.0312	65.6702	36.6093	709.1057	-40.728	260.5846	17.2209	587.9881	-0.0592	0.0182	-0.0073	-0.0462	0.0165	0.9585
51.2831	10.3429	98.4811	-0.59771	-36.3543	4.3149	100.1703	37.2184	694.1181	-40.9435	254.7644	17.1464	572.9041	-0.0592	0.0182	-0.0073	-0.0462	0.0165	0.9585
51.3029	8.5656	137.657	1.0209	-50.7086	1.9958	140.5081	36.7985	672.3634	-40.8523	246.3675	17.2163	552.8193	-0.0592	0.0182	-0.0073	-0.0462	0.0165	0.9585
51.3226	4.9871	180.0366	3.7038	-66.1522	-2.0892	184.2886	35.2936	643.8276	-40.3229	235.4096	17.3555	527.7839	-0.0592	0.0182	-0.0073	-0.0462	0.0165	0.9585
51.3423	0.30225	222.7217	7.323	-81.6314	-7.552	228.4345	32.7795	609.3178	-39.2663	222.2352	17.4783	498.4443	-0.0592	0.0182	-0.0073	-0.0462	0.0165	0.9585
51.362	-4.7727	263.581	11.3617	-96.4011	-13.5856	270.6597	29.4917	570.3834	-37.6602	207.4751	17.4906	465.9725	-0.0592	0.0182	-0.0073	-0.0462	0.0165	0.9585
51.3817	-9.7978	302.0579	15.334	-110.2888	-19.5243	310.3323	25.8048	528.9772	-35.5653	191.9002	17.3033	431.8056	-0.0592	0.0182	-0.0073	-0.0462	0.0165	0.9585
51.4014	-14.4825	338.4409	18.9164	-123.4148	-24.9376	347.7137	22.0978	486.9446	-33.0812	176.2195	16.846	397.2895	-0.0592	0.0182	-0.0073	-0.0462	0.0165	0.9585
51.4211	-18.5755	373.0434	21.9544	-135.8888	-29.5828	383.0883	18.6401	445.6838	-30.3162	160.9496	16.0936	363.4532	-0.0592	0.0182	-0.0073	-0.0462	0.0165	0.9585
